<?xml version="1.0" encoding="UTF-8"?>
<svg id="Layer_1" xmlns="http://www.w3.org/2000/svg" version="1.1" viewBox="0 0 290.18 170.07">
  <!-- Generator: Adobe Illustrator 29.4.0, SVG Export Plug-In . SVG Version: 2.1.0 Build 152)  -->
  <path d="M143.66,28.66c5.82,4.93,3.34,8.78-.73,13.57-6.91,8.12-18.74,14.47-27.93,19.82-6.73,3.92-13.45,8.07-20.03,11.88-.24.14-.56.4-.64.68,1.46-.04,2.88-1.41,4.26-1.62.75-.12,1.71.23,2.16.03s.24-.59.37-.72c.75-.69,3.12-1.58,4.19-1.95,9.39-3.22,18.85-6.72,28.55-9.36,8.39-2.28,17.16-3.96,25.9-3.74,6.91.17,15.26-.2,21.27,3.73,3.68,2.41,4.69,6.39,2.77,10.36-1.42,2.93-5.25,6.14-7.9,8.19-3.59,2.77-7.61,5.32-11.58,7.85-12.35,7.88-26.07,14.52-39.11,21.59-9.95,5.4-20.15,10.89-30.24,16.55-5.35,3-10.69,6.29-16.16,9.03-2.12,1.07-3.84,2.05-5.72,3.4-.27.19-.34.68-.6.84-.39.24-1.17.16-1.74.42-.65.3-2.24,1.39-3.14,1.9-7,3.89-14.09,7.58-21.11,11.52-3.89,2.19-7.74,4.65-11.75,6.73-.83.43-3.61,1.41-4.02,1.99-.17.25-.2.76-.26.81-.19.16-.89-.06-1.24.03-.23.06-.2.52-.57.68-3.29,1.37-6.15,2.92-9.36,4.56-.77.39-3.65,2.24-4.15,2.35-.58.13-.89-.17-1.31-.14s-.79.46-1.17.43c-.11,0-1.74-.94-1.83-1.04-.69-.72-.76-1.75-.11-2.5.82-.95,3.19-2.13,4.27-2.93,1.3-.97,3.32-3.05,4.72-3.68,1.2-.54,3.19-.75,4.31-1.69.34-.28.26-.93.72-1.18.16-.09.59.09.9-.06.44-.21.54-.7.96-.98,1.18-.78,3.76-1.43,5.1-2.1.5-.25.51-.92.8-1.24.78-.87,2.02-.33,2.98-.74.69-.29.92-1.11,1.07-1.2.26-.14.75,0,1.14-.18.52-.23,1.6-1.7,2.57-2.23,1.25-.68,3.09-1.22,4.33-1.91,1.44-.8,3.49-2.72,4.88-3.28,3.14-1.26,5.72-3.09,8.65-4.78,1.31-.75,2.31-.83,3.34-1.24.4-.16,1.5-1.52,1.97-1.86,1.95-1.4,3.49-1.4,5.52-3.21.27-.24.84-.26,1.02-.55.58-.9-2.15-4.29-2.52-5.42s-.73-3.93-.94-5.29c-.88-5.72-1.25-12.37-1.44-18.21-.03-1,.09-2.62,0-3.38-.06-.46-.46-.23-.52-.69-.16-1.35.08-3.05,0-4.3-.18-3.19-1.46-6.52-1.38-9.87.05-2.32,1.37-2.76,3.38-2.22.9.24.72,1.05,1.48.91l4.86-2.6,3.39-2.66c14.95-9.22,30.01-17.93,44.83-27.34,5.36-3.41,13.99-8.62,17.6-13.84.58-.84,1.11-1.8.7-2.8-.31-.75-1.19-.64-1.79-.9-3.81-1.71-9.35-2.5-13.65-2.67-11.47-.45-23.35,3.06-34.21,6.36-23.6,7.16-44.82,18.24-65.63,30.35-1.44.84-5.5,3.76-6.77,4.06-.53.12-.93-.22-1.38-.2-.61.03-1.2.38-1.87.24-.08-.02-1.07-1.03-1.11-1.1-.17-.3-.52-3.06-.47-3.29.22-.89,3-3.05,3.88-3.57,5.77-3.46,12.7-5.78,18.33-9.02,13.33-7.68,28.8-14.96,43.44-19.91,5.94-2.01,12.25-3.73,18.36-5.39,1.47-.4,4.09-1.69,5.36-1.86,1.79-.23,1.71-.02,3.69-.62,5.44-1.64,12.07-2.27,17.88-2.28,5.85-.01,15.58.77,20.18,4.68h0ZM167.84,76.4c1.81-1.41,4.31-3.02,5.89-4.55,1.21-1.16,1.96-2.98,3.51-3.95.26-.63-.71-1.78-1.35-2.02-4.4-1.68-9.58-1.61-14.26-1.81-5.36-.23-10.58.19-15.89,1.15-12.38,2.24-26.2,7.22-38.02,11.65-11.3,4.24-22.05,9.95-33.06,14.21-.69.27-1.67.02-2.29.83-.28,4.25.37,8.57.55,12.84.21,4.93.15,9.88.53,14.87l1.46,9.09.55.37c1.03-.52,1.96-1.67,2.85-2.2,1.67-.99,4.29-1.91,6.18-2.94,2.4-1.31,6.73-4.6,9.12-5.27.62-.18,1.6-.03,1.91-.25.21-.14.26-.7.47-.97.85-1.07,3.84-2.24,5.17-2.98,14.7-8.21,29.74-16.02,44.49-24.38,7.56-4.29,15.34-8.39,22.17-13.69h.02Z"/>
  <path d="M286.7,9.78c-.57.96-.15.47-.15,1.61-.01,3.88-.46,6.87-1.16,10.62-1.41,7.55-2.66,15.23-4.06,22.81-1.81,9.78-3.88,18.69-4.62,28.73-.04.51-.45.83-.44,1.15,0,.38.42.88.43,1.48.01.76-.44,1.84-.48,2.65-.52,11.5-.47,21.2,4.24,31.99,2.36,5.4,5.88,8.74,8.62,13.7.42.76,1.89,1.5.57,2.06l.48.36c-1.12.56-1.56-.1-2.29-.23-.59-.11-1.2.13-1.78-.13-.76-.35-1.76-1.93-2.35-2.27-2.52-1.44-3.5-1.93-5.29-4.49-4.92-7.02-8.18-14.53-9.37-23.02-1.27-9.08-1.03-20.11.2-29.02,1.86-13.45,4.86-27.29,7.44-40.55.05-.24.18-2.43-.46-1.79-.34.64-.3,1.66-.5,2.22-.08.23-.47.27-.63.61-5.55,11.68-11.33,23.71-18.36,34.44-.86,1.31-3,3.38-3.4,4.3-.18.4-.08.94-.29,1.38-.57,1.21-2.29,2.33-2.71,3.28-.85,1.96-2.11,3.6-3.54,5.34-2.52,3.08-5.57,6.42-8.68,8.91-2.9,2.32-6.68,3.24-9.84,5.09-.16,1.25-.51,2.46-.75,3.69-1.38,6.97-2.02,13.96-2.88,20.87-.51,4.05-.67,8.73-1.78,12.62-.86,3.03-3.54,3.38-6.25,2.61-.5-1.63-.69-3.22-2.26-4.21.57-.7.1-5.36.79-5.4l1.32.48,3.6-25.55-.48-.25-4.09,4.55c-.64,2.87-2.31,4.86-1.65,7.91.52,2.4.44,2.09.44,4.58,0,.4.47,2.27.14,2.28l-2.46-.54c-.03-1.25-1.24-2.71-1.44-3.72-.53-2.62-.32-6.37-.31-9.05.03-4.74-.78-7.5,2.89-11.05,1.02-.98,2.74-2.32,3.78-2.99,1.91-1.21,4.03-2.14,5.81-3.55,1.06-4.46,1.78-9.03,2.71-13.55,1.6-7.83,3.55-15.71,4.92-23.64.26-1.52.23-3.99.77-5.02-.14-1.02.92-3.69.72-4.5-.02-.08-.34-.48-.48-.25-.44.47-.65,1.15-1,1.65-6.21,8.97-13.07,18.08-19.12,27.41-2.27,3.64-4.54,7.21-6.48,11.04-.25.5-.38,1.42-.59,1.7-.54.73-3.44,1.42-4.2.98-.22-.13-.9-1.47-1.11-1.77-.16-.23-.82-.59-.85-.75-.52-2.48.82-2.57,1.77-4.17,2.11-3.56,3.86-7.4,6.13-10.9.78-1.2,3.45-4.23,3.73-5.17.12-.4-.19-.88-.12-.94.04-.04.77-.02,1.14-.31.41-.33.64-1.39.93-1.82,6.56-9.57,14.31-19.2,20.25-29.18.87-1.46,1.27-3.12,2-4.48,1.12-2.11,2.96-1.69,4.85-.92,2.17.88,2.11,1.76,2.28,3.98.29,3.81-.97,9.4-1.66,13.21-1.19,6.56-2.55,13-3.85,19.43-1.58,7.78-3.1,15.51-4.8,23.28-.07.31-.16,1.02.34.82.46-.18,2.8-1.79,3.33-2.19,5.52-4.21,10.22-11.21,14.46-16.85,3.27-4.36,5.63-8.8,8.19-13.52.32-.59,1.59-1.47,1.86-2.23.18-.5.04-.99.2-1.37.26-.65,2.52-3.07,2.92-3.91.73-1.55.51-1.97,1.67-3.85,3.12-5.05,4.66-10.66,7.48-15.8.25-.46,1.05-.88,1.19-1.22.13-.32-.13-.71-.02-1.19.23-.99,1.22-1.89,1.51-2.83.15-.48-.04-1.03.18-1.5.14-.29.64-.35.85-.65.91-1.28,2.25-5.04,3.02-6.75.41-.9,1.05-.95.68-2.44,1.59-.81,1.67-1.75,3.73-1.06.9.3,3.52,2.26,3.95,3,.25.42.72,3.47.54,3.77h0l-.02-.05Z"/>
  <path d="M189.83,135.57l-.47-.37v-.46c.66-.74.79.1.47.84h0Z"/>
  <rect x="-.1" y=".28" width=".95" height=".5" transform="translate(-.24 .74) rotate(-73.54)"/>
</svg>